<?xml version="1.0" encoding="utf-8"?>
<!-- Generator: Adobe Illustrator 19.0.0, SVG Export Plug-In . SVG Version: 6.00 Build 0)  -->
<svg version="1.1" id="Layer_1" xmlns="http://www.w3.org/2000/svg" xmlns:xlink="http://www.w3.org/1999/xlink" x="0px" y="0px"
	 viewBox="26 78.8 894.9 438.5" style="enable-background:new 26 78.8 894.9 438.5;" xml:space="preserve">
<style type="text/css">
	.st0{fill:none;stroke:#000000;stroke-width:0.9;}
</style>
<g transform="translate(22.5000185, 22.5000185) ">
	<polygon class="st0" points="350.3,132.4 350.3,149.4 341.8,149.4 341.8,166.4 350.3,166.4 350.3,183.4 341.8,183.4 341.8,200.4 
		350.3,200.4 350.3,217.4 341.8,217.4 341.8,246.5 350.3,246.5 350.3,275.5 323.4,275.5 323.4,267 296.5,267 296.5,275.5 
		279.5,275.5 279.5,267 262.4,267 262.4,275.5 245.4,275.5 245.4,267 228.4,267 228.4,275.5 211.4,275.5 211.4,267 194.4,267 
		194.4,275.5 177.4,275.5 177.4,267 160.4,267 160.4,275.5 143.4,275.5 143.4,267 126.4,267 126.4,275.5 109.4,275.5 109.4,267 
		92.4,267 92.4,275.5 75.4,275.5 75.4,267 48.4,267 48.4,275.5 21.5,275.5 21.5,246.5 30,246.5 30,217.4 21.5,217.4 21.5,200.4 
		30,200.4 30,183.4 21.5,183.4 21.5,166.4 30,166.4 30,149.4 21.5,149.4 21.5,132.4 21.5,103.3 21.5,74.3 48.4,74.3 48.4,82.8 
		75.4,82.8 75.4,74.3 92.4,74.3 92.4,82.8 109.4,82.8 109.4,74.3 126.4,74.3 126.4,82.8 143.4,82.8 143.4,74.3 160.4,74.3 
		160.4,82.8 177.4,82.8 177.4,74.3 194.4,74.3 194.4,82.8 211.4,82.8 211.4,74.3 228.4,74.3 228.4,82.8 245.4,82.8 245.4,74.3 
		262.4,74.3 262.4,82.8 279.5,82.8 279.5,74.3 296.5,74.3 296.5,82.8 323.4,82.8 323.4,74.3 350.3,74.3 350.3,103.3 	"/>
</g>
<g transform="translate(433.5239785, 22.5000185) ">
	<polygon class="st0" points="-60.7,103.3 -60.7,74.3 -33.8,74.3 -33.8,82.8 -6.8,82.8 -6.8,74.3 10.2,74.3 10.2,82.8 27.2,82.8 
		27.2,74.3 44.2,74.3 44.2,82.8 61.2,82.8 61.2,74.3 78.2,74.3 78.2,82.8 95.2,82.8 95.2,74.3 112.2,74.3 112.2,82.8 129.2,82.8 
		129.2,74.3 146.2,74.3 146.2,82.8 163.2,82.8 163.2,74.3 180.2,74.3 180.2,82.8 197.2,82.8 197.2,74.3 214.3,74.3 214.3,82.8 
		241.2,82.8 241.2,74.3 268.1,74.3 268.1,103.3 268.1,132.4 268.1,149.4 259.6,149.4 259.6,166.4 268.1,166.4 268.1,183.4 
		259.6,183.4 259.6,200.4 268.1,200.4 268.1,217.4 259.6,217.4 259.6,246.5 268.1,246.5 268.1,275.5 241.2,275.5 241.2,267 
		214.3,267 214.3,275.5 197.2,275.5 197.2,267 180.2,267 180.2,275.5 163.2,275.5 163.2,267 146.2,267 146.2,275.5 129.2,275.5 
		129.2,267 112.2,267 112.2,275.5 95.2,275.5 95.2,267 78.2,267 78.2,275.5 61.2,275.5 61.2,267 44.2,267 44.2,275.5 27.2,275.5 
		27.2,267 10.2,267 10.2,275.5 -6.8,275.5 -6.8,267 -33.8,267 -33.8,275.5 -60.7,275.5 -60.7,246.5 -52.2,246.5 -52.2,217.4 
		-60.7,217.4 -60.7,200.4 -52.2,200.4 -52.2,183.4 -60.7,183.4 -60.7,166.4 -52.2,166.4 -52.2,149.4 -60.7,149.4 -60.7,132.4 	"/>
</g>
<g transform="translate(844.5479385, 22.5000185) ">
	<polygon class="st0" points="49.8,132.4 49.8,149.4 58.3,149.4 58.3,166.4 49.8,166.4 49.8,183.4 58.3,183.4 58.3,200.4 
		49.8,200.4 49.8,217.4 58.3,217.4 58.3,246.5 49.8,246.5 49.8,275.5 29.3,275.5 29.3,267 0.2,267 0.2,275.5 -16.8,275.5 -16.8,267 
		-33.8,267 -33.8,275.5 -50.8,275.5 -50.8,267 -67.8,267 -67.8,275.5 -84.8,275.5 -84.8,267 -113.9,267 -113.9,275.5 -134.4,275.5 
		-134.4,246.5 -142.9,246.5 -142.9,217.4 -134.4,217.4 -134.4,200.4 -142.9,200.4 -142.9,183.4 -134.4,183.4 -134.4,166.4 
		-142.9,166.4 -142.9,149.4 -134.4,149.4 -134.4,132.4 	"/>
</g>
<g transform="translate(844.5479385, 274.0750285) ">
	<polygon class="st0" points="49.8,82.1 49.8,99.1 58.3,99.1 58.3,116.1 49.8,116.1 49.8,133.1 58.3,133.1 58.3,150.1 49.8,150.1 
		49.8,167.1 58.3,167.1 58.3,196.1 49.8,196.1 49.8,225.2 29.3,225.2 29.3,216.7 0.2,216.7 0.2,225.2 -16.8,225.2 -16.8,216.7 
		-33.8,216.7 -33.8,225.2 -50.8,225.2 -50.8,216.7 -67.8,216.7 -67.8,225.2 -84.8,225.2 -84.8,216.7 -113.9,216.7 -113.9,225.2 
		-134.4,225.2 -134.4,196.1 -142.9,196.1 -142.9,167.1 -134.4,167.1 -134.4,150.1 -142.9,150.1 -142.9,133.1 -134.4,133.1 
		-134.4,116.1 -142.9,116.1 -142.9,99.1 -134.4,99.1 -134.4,82.1 	"/>
</g>
<g transform="translate(22.5000185, 274.0750285) ">
	<polygon class="st0" points="30,32.4 48.4,32.4 48.4,23.9 75.4,23.9 75.4,32.4 92.4,32.4 92.4,23.9 109.4,23.9 109.4,32.4 
		126.4,32.4 126.4,23.9 143.4,23.9 143.4,32.4 160.4,32.4 160.4,23.9 177.4,23.9 177.4,32.4 194.4,32.4 194.4,23.9 211.4,23.9 
		211.4,32.4 228.4,32.4 228.4,23.9 245.4,23.9 245.4,32.4 262.4,32.4 262.4,23.9 279.5,23.9 279.5,32.4 296.5,32.4 296.5,23.9 
		323.4,23.9 323.4,32.4 341.8,32.4 341.8,53 350.3,53 350.3,82.1 341.8,82.1 341.8,99.1 350.3,99.1 350.3,116.1 341.8,116.1 
		341.8,133.1 350.3,133.1 350.3,150.1 341.8,150.1 341.8,167.1 350.3,167.1 350.3,196.1 341.8,196.1 341.8,216.7 323.4,216.7 
		323.4,225.2 296.5,225.2 296.5,216.7 279.5,216.7 279.5,225.2 262.4,225.2 262.4,216.7 245.4,216.7 245.4,225.2 228.4,225.2 
		228.4,216.7 211.4,216.7 211.4,225.2 194.4,225.2 194.4,216.7 177.4,216.7 177.4,225.2 160.4,225.2 160.4,216.7 143.4,216.7 
		143.4,225.2 126.4,225.2 126.4,216.7 109.4,216.7 109.4,225.2 92.4,225.2 92.4,216.7 75.4,216.7 75.4,225.2 48.4,225.2 48.4,216.7 
		30,216.7 30,196.1 21.5,196.1 21.5,167.1 30,167.1 30,150.1 21.5,150.1 21.5,133.1 30,133.1 30,116.1 21.5,116.1 21.5,99.1 
		30,99.1 30,82.1 21.5,82.1 21.5,53 30,53 	"/>
</g>
<g transform="translate(433.5239785, 274.0750285) ">
	<polygon class="st0" points="268.1,167.1 268.1,196.1 268.1,216.7 259.6,216.7 241.2,216.7 241.2,225.2 214.3,225.2 214.3,216.7 
		197.2,216.7 197.2,225.2 180.2,225.2 180.2,216.7 163.2,216.7 163.2,225.2 146.2,225.2 146.2,216.7 129.2,216.7 129.2,225.2 
		112.2,225.2 112.2,216.7 95.2,216.7 95.2,225.2 78.2,225.2 78.2,216.7 61.2,216.7 61.2,225.2 44.2,225.2 44.2,216.7 27.2,216.7 
		27.2,225.2 10.2,225.2 10.2,216.7 -6.8,216.7 -6.8,225.2 -33.8,225.2 -33.8,216.7 -60.7,216.7 -60.7,32.4 -33.8,32.4 -33.8,23.9 
		-6.8,23.9 -6.8,32.4 10.2,32.4 10.2,23.9 27.2,23.9 27.2,32.4 44.2,32.4 44.2,23.9 61.2,23.9 61.2,32.4 78.2,32.4 78.2,23.9 
		95.2,23.9 95.2,32.4 112.2,32.4 112.2,23.9 129.2,23.9 129.2,32.4 146.2,32.4 146.2,23.9 163.2,23.9 163.2,32.4 180.2,32.4 
		180.2,23.9 197.2,23.9 197.2,32.4 214.3,32.4 214.3,23.9 241.2,23.9 241.2,32.4 259.6,32.4 268.1,32.7 268.1,53 268.1,82.1 	"/>
</g>
</svg>
